name Walk3.mot
datacolumns 19
datarows 17
range 1.68000000 1.76000000
endheader

                time	   L_ground_force_vx	   L_ground_force_vy	   L_ground_force_vz	   L_ground_force_px	   L_ground_force_py	   L_ground_force_pz	   R_ground_force_vx	   R_ground_force_vy	   R_ground_force_vz	   R_ground_force_px	   R_ground_force_py	   R_ground_force_pz	   L_ground_torque_x	   L_ground_torque_y	   L_ground_torque_z	   R_ground_torque_x	   R_ground_torque_y	   R_ground_torque_z	
          1.68000000	         16.72376342	        525.56928637	         34.12614961	         -0.33423518	          0.00000000	         -0.06045444	         -0.00000000	         -0.00000000	         -0.00000000	          0.00000000	          0.00000000	          0.00000000	          0.00000000	          0.58890011	          0.00000000	          0.00000000	         -0.00000000	          0.00000000	
          1.68500000	         18.28897304	        532.65222484	         34.79971089	         -0.33271682	          0.00000000	         -0.06077151	         -0.00000000	          0.00000000	         -0.00000000	          0.00000000	          0.00000000	          0.00000000	          0.00000000	          0.53459768	          0.00000000	          0.00000000	         -0.00000000	          0.00000000	
          1.69000000	         19.87539509	        540.08717035	         35.51434464	         -0.33135519	          0.00000000	         -0.06108303	         -0.00000000	          0.00000000	          0.00000000	          0.00000000	          0.00000000	          0.00000000	          0.00000000	          0.51183814	          0.00000000	          0.00000000	         -0.00000000	          0.00000000	
          1.69500000	         21.39922991	        547.96954068	         36.32859116	         -0.33008912	          0.00000000	         -0.06131944	          0.00000000	         -0.00000000	          0.00000000	         -0.00000000	          0.00000000	         -0.00000000	          0.00000000	          0.47170287	          0.00000000	          0.00000000	          0.00000000	          0.00000000	
          1.70000000	         22.77894046	        556.26563484	         37.20366851	         -0.32890233	          0.00000000	         -0.06152506	          0.00000000	         -0.00000000	          0.00000000	         -0.00000000	          0.00000000	         -0.00000000	          0.00000000	          0.39804561	          0.00000000	          0.00000000	          0.00000000	          0.00000000	
          1.70500000	         24.17208437	        564.87808024	         38.02579404	         -0.32768902	          0.00000000	         -0.06178911	          0.00000000	         -0.00000000	         -0.00000000	         -0.00000000	          0.00000000	         -0.00000000	          0.00000000	          0.34001169	          0.00000000	          0.00000000	          0.00000000	          0.00000000	
          1.71000000	         25.83412139	        573.75510464	         38.77874145	         -0.32649694	          0.00000000	         -0.06206985	         -0.00000000	          0.00000000	         -0.00000000	          0.00000000	          0.00000000	          0.00000000	          0.00000000	          0.26842157	          0.00000000	          0.00000000	         -0.00000000	          0.00000000	
          1.71500000	         27.77905182	        583.36479442	         39.50302886	         -0.32545714	          0.00000000	         -0.06217661	         -0.00000000	          0.00000000	          0.00000000	          0.00000000	          0.00000000	          0.00000000	          0.00000000	          0.17981753	          0.00000000	          0.00000000	         -0.00000000	          0.00000000	
          1.72000000	         29.97674189	        593.61230809	         40.27289975	         -0.32437107	          0.00000000	         -0.06232251	         -0.00000000	          0.00000000	          0.00000000	         -0.00000000	          0.00000000	         -0.00000000	          0.00000000	          0.10586286	          0.00000000	          0.00000000	          0.00000000	          0.00000000	
          1.72500000	         32.42255881	        603.94877556	         41.16719028	         -0.32321941	          0.00000000	         -0.06252167	          0.00000000	         -0.00000001	          0.00000000	         -0.00000000	          0.00000000	         -0.00000000	          0.00000000	          0.04254582	          0.00000000	          0.00000000	          0.00000000	          0.00000000	
          1.73000000	         34.96351630	        614.20900370	         42.15707447	         -0.32219161	          0.00000000	         -0.06272290	          0.00000000	         -0.00000004	         -0.00000000	         -0.00000000	          0.00000000	         -0.00000000	          0.00000000	         -0.00959322	          0.00000000	          0.00000000	          0.00000000	          0.00000000	
          1.73500000	         37.43513507	        624.63641364	         43.15259697	         -0.32119590	          0.00000000	         -0.06292519	         -0.00000000	         -0.00000005	         -0.00000000	          0.00000000	          0.00000000	          0.00000000	          0.00000000	         -0.02810315	          0.00000000	          0.00000000	         -0.00000000	          0.00000000	
          1.74000000	         39.88278267	        635.00385943	         44.15763112	         -0.32024975	          0.00000000	         -0.06298396	         -0.00000005	          0.00000027	         -0.00000001	          0.00000000	          0.00000000	          0.00000000	          0.00000000	         -0.05126575	          0.00000000	          0.00000000	         -0.00000000	          0.00000000	
          1.74500000	         42.48666695	        645.17988145	         45.23393219	         -0.31945703	          0.00000000	         -0.06304629	         -0.00000011	          0.00000113	          0.00000002	          0.00000000	          0.00000000	          0.00000000	          0.00000000	         -0.10612026	          0.00000000	          0.00000000	         -0.00000000	          0.00000000	
          1.75000000	         45.24135176	        655.06271901	         46.39444921	         -0.31869599	          0.00000000	         -0.06321282	          0.00000016	          0.00000045	          0.00000010	         -0.00000000	          0.00000000	         -0.00000000	          0.00000000	         -0.16988265	          0.00000000	          0.00000000	          0.00000000	          0.00000000	
          1.75500000	         48.19737803	        664.32642585	         47.50640716	         -0.31784263	          0.00000000	         -0.06325858	          0.00000139	         -0.00000928	          0.00000009	         -0.00000001	          0.00000000	         -0.00000001	          0.00000000	         -0.22043396	          0.00000000	          0.00000000	          0.00000000	          0.00000000	
          1.76000000	         51.50067823	        672.74294954	         48.43740429	         -0.31710225	          0.00000000	         -0.06334868	          0.00000217	         -0.00002825	         -0.00000071	         -0.00000001	          0.00000000	         -0.00000001	          0.00000000	         -0.26838411	          0.00000000	          0.00000000	          0.00000000	          0.00000000	
